if (_typeface_js && _typeface_js.loadFace) _typeface_js.loadFace({"glyphs":{"ο":{"x_min":67,"x_max":787,"ha":799,"o":"m 344 -25 q 136 58 211 -25 q 67 265 67 136 q 77 368 67 312 q 226 642 111 533 q 509 761 348 761 q 717 676 642 761 q 787 466 787 597 q 776 368 787 420 q 626 91 740 201 q 344 -25 505 -25 m 367 84 q 554 174 473 84 q 649 369 625 255 q 657 449 657 409 q 618 591 657 538 q 486 651 573 651 q 302 561 381 651 q 209 369 234 483 q 202 327 205 348 q 200 287 200 306 q 238 145 200 198 q 367 84 281 84 "},"S":{"x_min":61,"x_max":898,"ha":872,"o":"m 832 292 q 661 54 801 143 q 383 -26 534 -26 q 152 46 239 -26 q 61 253 61 122 q 62 294 61 279 q 70 338 63 310 l 198 338 q 193 306 194 322 q 192 271 192 289 q 245 134 192 183 q 394 85 299 85 q 572 129 486 85 q 693 271 674 182 q 696 304 696 283 q 562 431 696 386 q 315 505 439 468 q 181 679 181 564 q 181 705 181 696 q 186 740 181 714 q 340 965 216 882 q 598 1042 454 1042 q 813 974 728 1042 q 898 789 898 907 q 889 717 898 754 l 761 717 q 765 743 764 728 q 767 771 767 758 q 718 890 767 847 q 583 934 669 934 q 424 892 497 934 q 319 760 337 842 q 317 742 317 751 q 317 728 317 732 q 451 607 317 647 q 702 536 576 571 q 838 357 838 478 q 838 326 838 343 q 832 292 838 308 "},"¦":{"x_min":285.828125,"x_max":646.53125,"ha":776,"o":"m 536 462 l 432 462 l 543 986 l 646 986 l 536 462 m 389 -242 l 285 -242 l 394 280 l 498 280 l 389 -242 "},"/":{"x_min":152.4375,"x_max":813.953125,"ha":776,"o":"m 813 1042 l 234 -129 l 152 -129 l 728 1042 l 813 1042 "},"Τ":{"x_min":186.46875,"x_max":974.5625,"ha":822,"o":"m 948 893 l 635 893 l 449 0 l 313 0 l 499 891 l 186 891 l 212 1012 l 974 1012 l 948 893 "},"y":{"x_min":39.46875,"x_max":824.828125,"ha":755,"o":"m 824 738 l 363 -83 q 258 -216 314 -166 q 111 -279 187 -279 q 39 -266 72 -279 l 63 -148 q 89 -155 68 -150 q 130 -160 110 -160 q 212 -114 176 -160 q 264 -26 223 -100 l 153 737 l 288 737 l 364 139 l 691 738 l 824 738 "},"Π":{"x_min":0,"x_max":999.0625,"ha":898,"o":"m 786 0 l 653 0 l 838 886 l 322 886 l 137 0 l 0 0 l 212 1012 l 999 1012 l 786 0 "},"ΐ":{"x_min":58.75,"x_max":525.671875,"ha":354,"o":"m 499 800 l 392 800 l 418 925 l 525 925 l 499 800 m 166 800 l 58 800 l 84 925 l 192 925 l 166 800 m 277 2 q 226 -9 253 -4 q 175 -15 200 -15 q 94 16 118 -15 q 71 105 71 48 q 73 147 71 131 q 83 199 75 163 l 194 738 l 317 738 l 209 215 q 202 180 205 198 q 199 149 199 162 q 208 113 199 126 q 243 101 218 101 q 275 105 260 101 q 301 112 291 109 l 277 2 m 514 1040 l 283 819 l 201 819 l 380 1040 l 514 1040 "},"g":{"x_min":11,"x_max":826.140625,"ha":821,"o":"m 679 34 q 530 -213 646 -121 q 261 -306 413 -306 q 91 -261 162 -306 q 11 -121 11 -209 q 13 -85 11 -97 l 135 -85 q 185 -173 135 -140 q 295 -207 235 -207 q 480 -109 403 -207 q 573 88 543 -32 q 454 5 518 35 q 324 -24 389 -24 q 130 63 200 -24 q 67 271 67 145 q 77 370 67 317 q 219 634 109 520 q 483 758 339 758 q 600 728 549 758 q 687 643 651 699 l 706 737 l 826 737 l 679 34 m 647 367 q 656 447 656 407 q 617 590 656 538 q 487 652 574 652 q 303 561 382 652 q 210 368 234 481 q 202 288 202 328 q 241 145 202 199 q 371 84 286 84 q 555 175 476 84 q 647 367 623 254 "},"²":{"x_min":80.09375,"x_max":604,"ha":528,"o":"m 512 382 l 80 382 q 208 565 103 491 q 397 667 301 616 q 514 797 499 726 q 517 819 517 810 q 487 881 517 858 q 413 904 458 904 q 315 868 360 904 q 255 761 270 833 l 172 761 q 273 921 194 863 q 431 973 342 973 q 554 935 504 973 q 604 831 604 898 q 599 796 604 816 q 477 634 580 705 q 292 538 443 612 q 184 454 194 491 l 527 454 l 512 382 "},"–":{"x_min":70.78125,"x_max":777.203125,"ha":787,"o":"m 762 335 l 70 335 l 85 411 l 777 411 l 762 335 "},"Κ":{"x_min":0,"x_max":1005.859375,"ha":875,"o":"m 803 0 l 637 0 l 394 509 l 210 356 l 136 0 l 0 0 l 212 1012 l 348 1012 l 246 526 l 826 1012 l 1005 1012 l 513 599 l 803 0 "},"ƒ":{"x_min":-103.4375,"x_max":600.25,"ha":502,"o":"m 519 651 l 390 651 l 19 -279 l -103 -279 l 268 651 l 149 651 l 171 751 l 289 751 q 347 947 321 900 q 515 1041 398 1041 q 555 1039 540 1041 q 600 1034 570 1038 l 577 921 q 525 931 548 931 q 449 884 476 931 q 420 794 431 853 l 412 751 l 541 751 l 519 651 "},"e":{"x_min":65,"x_max":783,"ha":797,"o":"m 767 327 l 204 327 q 202 305 202 315 q 202 281 202 294 q 241 144 202 196 q 369 86 286 86 q 505 130 440 86 q 601 246 570 175 l 735 246 q 576 48 683 122 q 345 -26 469 -26 q 137 54 210 -26 q 65 265 65 135 q 75 364 65 308 q 227 643 109 529 q 511 765 352 765 q 718 673 648 765 q 783 455 783 591 q 778 393 783 428 q 767 327 774 358 m 654 430 q 656 457 656 439 q 611 595 656 540 q 484 650 566 650 q 323 583 395 650 q 226 430 259 524 l 654 430 "},"ό":{"x_min":67,"x_max":787,"ha":799,"o":"m 344 -25 q 138 55 209 -25 q 67 266 67 136 q 77 368 67 312 q 226 642 111 533 q 509 761 348 761 q 717 676 642 761 q 787 466 787 597 q 776 368 787 420 q 626 91 740 201 q 344 -25 505 -25 m 367 84 q 554 174 473 84 q 649 369 625 255 q 657 449 657 409 q 618 591 657 538 q 486 651 573 651 q 302 561 381 651 q 209 369 234 483 q 202 327 205 348 q 200 287 200 306 q 238 145 200 198 q 367 84 281 84 m 782 1040 l 551 819 l 469 819 l 648 1040 l 782 1040 "},"J":{"x_min":52,"x_max":788.609375,"ha":685,"o":"m 634 278 q 276 -27 572 -27 q 101 31 155 -27 q 52 186 52 82 q 68 326 52 249 l 199 326 q 191 279 195 308 q 187 229 187 249 q 210 135 187 167 q 304 95 238 95 q 453 170 404 95 q 510 335 485 218 l 652 1012 l 788 1012 l 634 278 "},"»":{"x_min":28.578125,"x_max":586.640625,"ha":589,"o":"m 558 302 l 304 137 l 330 256 l 498 372 l 378 486 l 404 608 l 586 440 l 558 302 m 281 302 l 28 137 l 54 256 l 220 372 l 102 486 l 127 608 l 310 440 l 281 302 "},"©":{"x_min":90,"x_max":1107,"ha":1084,"o":"m 491 -7 q 186 109 294 -7 q 90 383 90 215 q 254 805 90 617 q 705 1011 434 1011 q 1010 894 904 1011 q 1107 619 1107 788 q 943 198 1107 384 q 491 -7 763 -7 m 505 60 q 896 238 739 60 q 1038 603 1038 401 q 954 842 1038 751 q 690 944 862 944 q 301 764 457 944 q 158 398 158 600 q 241 161 158 252 q 505 60 333 60 m 810 394 q 699 246 780 302 q 527 190 619 190 q 371 253 423 190 q 319 416 319 317 q 411 680 319 560 q 660 812 513 812 q 795 767 740 812 q 851 646 851 723 q 849 624 851 632 l 753 624 q 721 703 753 673 q 642 734 690 734 q 483 631 548 734 q 425 428 425 539 q 453 315 425 359 q 537 272 482 272 q 642 304 596 272 q 709 394 687 337 l 810 394 "},"ώ":{"x_min":61,"x_max":985,"ha":1010,"o":"m 890 1041 l 659 820 l 578 820 l 756 1041 l 890 1041 m 974 339 q 859 97 945 203 q 631 -26 757 -26 q 529 9 569 -26 q 473 103 488 44 q 382 12 436 46 q 267 -21 327 -21 q 108 60 163 -21 q 61 243 61 131 q 70 339 61 296 q 160 551 92 444 q 311 737 218 644 l 450 737 q 286 553 352 649 q 191 336 213 444 q 182 251 182 294 q 203 140 182 182 q 286 88 231 88 q 401 162 352 88 q 452 294 437 219 l 511 572 l 632 572 l 573 294 q 565 212 565 258 q 584 123 565 158 q 647 88 602 88 q 784 182 722 88 q 852 342 833 256 q 862 433 862 386 q 835 588 862 515 q 760 738 809 661 l 898 738 q 961 591 938 665 q 985 439 985 517 q 974 339 985 394 "},"^":{"x_min":351.171875,"x_max":748.609375,"ha":776,"o":"m 748 772 l 666 772 l 582 930 l 434 772 l 351 772 l 532 1012 l 665 1012 l 748 772 "},"«":{"x_min":63.96875,"x_max":624.75,"ha":592,"o":"m 525 137 l 341 302 l 370 440 l 624 608 l 598 486 l 430 372 l 551 256 l 525 137 m 246 137 l 63 302 l 92 440 l 345 608 l 319 486 l 151 372 l 272 256 l 246 137 "},"D":{"x_min":-0.359375,"x_max":935,"ha":916,"o":"m 593 1012 q 850 909 759 1012 q 935 652 935 813 q 930 588 935 624 q 920 520 926 553 q 732 160 875 308 q 374 -1 575 -1 l 0 -1 l 211 1012 l 593 1012 m 394 123 q 646 246 538 123 q 772 509 740 354 q 785 618 785 563 q 731 811 785 738 q 556 895 672 895 l 323 895 l 161 123 l 394 123 "},"∙":{"x_min":122.5,"x_max":292.640625,"ha":234,"o":"m 261 585 l 122 585 l 153 738 l 292 738 l 261 585 "},"ÿ":{"x_min":2.921875,"x_max":48.140625,"ha":123,"o":"m 46 2 q 35 -7 45 -7 q 27 0 27 -7 q 36 -4 29 -4 q 44 2 44 -1 l 36 0 q 30 9 28 0 q 41 19 31 19 l 46 15 l 48 19 l 46 2 m 37 1 q 47 9 44 1 q 41 17 50 17 q 32 9 35 17 q 37 1 29 1 m 26 0 l 26 21 l 13 0 l 7 21 l 2 0 l 5 24 l 15 3 l 26 24 l 26 0 "},"w":{"x_min":153.734375,"x_max":1142.40625,"ha":1077,"o":"m 1142 737 l 766 0 l 627 0 l 627 566 l 338 0 l 217 0 l 153 737 l 298 737 l 298 173 l 576 737 l 730 737 l 730 173 l 1015 737 l 1142 737 "},"$":{"x_min":53,"x_max":804,"ha":777,"o":"m 799 718 l 680 718 q 650 826 680 787 q 555 872 621 865 l 488 551 q 682 469 616 526 q 748 323 748 413 q 735 241 748 285 q 610 45 700 115 q 367 -25 519 -25 l 341 -151 l 269 -151 l 295 -25 q 116 36 179 -25 q 53 206 53 98 q 54 249 53 234 q 62 297 55 265 l 183 297 q 178 266 179 283 q 177 232 177 249 q 211 123 177 164 q 317 83 246 83 l 393 441 q 211 513 269 465 q 154 644 154 562 q 155 683 154 670 q 164 724 156 697 q 287 910 193 838 q 506 981 382 981 l 526 1076 l 598 1076 l 578 982 q 735 930 674 982 q 804 770 804 873 q 799 718 804 745 m 419 565 l 483 872 q 359 831 411 872 q 291 724 307 791 q 286 680 286 702 q 419 565 286 588 m 389 76 q 601 237 560 95 q 608 288 608 259 q 461 423 608 398 l 389 76 "},"\\":{"x_min":260,"x_max":344,"ha":511,"o":"m 344 -129 l 260 -129 l 260 1042 l 344 1042 l 344 -129 "},"µ":{"x_min":-58.640625,"x_max":758.0625,"ha":732,"o":"m 681 -4 q 647 -11 664 -8 q 613 -14 631 -14 q 509 96 509 -14 q 416 8 469 40 q 302 -24 363 -24 q 204 3 246 -24 q 133 80 161 31 l 58 -278 l -58 -278 l 153 737 l 274 737 l 193 342 q 185 262 185 305 q 213 138 185 184 q 319 82 248 82 q 480 177 410 82 q 557 357 536 255 l 636 737 l 758 737 l 649 213 q 643 180 646 199 q 641 146 641 161 q 649 105 641 120 q 680 91 657 91 q 703 95 688 91 l 681 -4 "},"Ι":{"x_min":40.828125,"x_max":389.28125,"ha":291,"o":"m 176 0 l 40 0 l 253 1012 l 389 1012 l 176 0 "},"Ύ":{"x_min":167.421875,"x_max":1333.890625,"ha":1190,"o":"m 1333 1012 l 877 416 l 790 0 l 653 0 l 740 416 l 530 1012 l 668 1012 l 833 533 l 1196 1012 l 1333 1012 m 490 1040 l 249 800 l 167 800 l 355 1040 l 490 1040 "},"’":{"x_min":140.1875,"x_max":348.4375,"ha":231,"o":"m 314 851 q 253 737 300 785 q 140 670 206 690 l 153 734 q 223 787 197 741 q 253 872 242 819 l 182 872 l 212 1012 l 348 1012 l 314 851 "},"Ν":{"x_min":0,"x_max":997.703125,"ha":897,"o":"m 785 0 l 638 0 l 300 821 l 127 0 l 0 0 l 212 1012 l 360 1012 l 696 191 l 869 1012 l 997 1012 l 785 0 "},"-":{"x_min":76.21875,"x_max":434.1875,"ha":468,"o":"m 411 317 l 76 317 l 99 428 l 434 428 l 411 317 "},"Q":{"x_min":91,"x_max":1070,"ha":1051,"o":"m 936 6 l 853 -78 l 737 36 q 607 -11 675 3 q 468 -26 540 -26 q 186 85 287 -26 q 91 367 91 190 q 105 504 91 430 q 308 880 152 729 q 692 1042 474 1042 q 975 931 876 1042 q 1070 650 1070 827 q 1067 579 1070 609 q 1054 509 1064 550 q 977 293 1031 396 q 838 106 922 189 l 936 6 m 748 192 q 857 336 811 247 q 915 500 896 414 q 928 621 928 561 q 866 834 928 754 q 666 923 798 923 q 388 792 507 923 q 245 506 279 674 q 233 391 233 447 q 295 179 233 260 q 496 91 364 91 q 646 124 574 91 l 555 216 l 638 302 l 748 192 "},"ς":{"x_min":71,"x_max":764,"ha":726,"o":"m 759 461 l 637 461 q 639 479 639 469 q 639 492 639 488 q 603 608 639 565 q 494 651 568 651 q 318 577 396 651 q 218 401 239 504 q 210 327 210 359 q 316 169 210 217 q 514 110 415 140 q 621 -8 621 74 q 616 -50 621 -26 q 575 -166 605 -104 q 513 -278 555 -211 l 397 -278 q 462 -158 450 -186 q 488 -80 480 -121 q 490 -62 490 -73 q 382 12 490 -12 q 180 73 223 48 q 71 276 71 135 q 73 331 71 313 q 83 388 75 348 q 236 651 115 541 q 506 761 356 761 q 697 697 630 761 q 764 517 764 633 q 759 461 764 490 "},"M":{"x_min":0,"x_max":1147.421875,"ha":1045,"o":"m 935 0 l 803 0 l 985 867 l 526 0 l 397 0 l 306 864 l 125 0 l 0 0 l 212 1012 l 408 1012 l 495 158 l 955 1012 l 1147 1012 l 935 0 "},"Ψ":{"x_min":118,"x_max":1197.53125,"ha":1072,"o":"m 1126 677 q 962 319 1075 429 q 601 200 839 200 l 559 0 l 424 0 l 466 200 q 200 271 282 200 q 118 491 118 342 q 141 677 118 570 l 212 1012 l 348 1012 l 277 678 q 261 589 266 627 q 257 517 257 552 q 307 375 257 420 q 492 326 363 326 l 636 1012 l 771 1012 l 627 326 l 636 326 q 885 423 800 326 q 992 678 955 502 l 1062 1012 l 1197 1012 l 1126 677 "},"C":{"x_min":90,"x_max":1014,"ha":926,"o":"m 947 380 q 764 88 911 203 q 441 -26 616 -26 q 174 83 265 -26 q 90 356 90 185 q 106 510 90 431 q 300 883 155 737 q 677 1042 459 1042 q 911 968 816 1042 q 1014 758 1014 889 q 1009 709 1014 733 l 879 709 q 817 863 879 806 q 657 921 755 921 q 380 792 499 921 q 239 510 274 677 q 227 397 227 453 q 286 187 227 267 q 481 99 353 99 q 689 178 598 99 q 816 380 781 257 l 947 380 "},"!":{"x_min":0,"x_max":348.4375,"ha":231,"o":"m 279 684 q 221 466 261 596 q 155 244 187 355 l 84 244 q 108 464 100 389 q 142 684 123 593 l 212 1012 l 348 1012 l 279 684 m 136 0 l 0 0 l 31 151 l 167 151 l 136 0 "},"{":{"x_min":65,"x_max":682.46875,"ha":565,"o":"m 410 -286 q 211 -240 270 -286 q 163 -123 163 -201 q 197 40 163 -70 q 231 195 231 151 q 197 280 231 252 q 65 314 156 314 l 86 417 q 315 570 270 417 q 377 859 346 715 q 682 1015 445 1015 l 662 915 q 468 797 509 915 q 425 557 447 676 q 248 365 387 410 q 327 308 305 344 q 349 218 349 272 q 320 66 349 169 q 292 -76 292 -36 q 322 -154 292 -127 q 432 -182 353 -182 l 410 -286 "},"X":{"x_min":0,"x_max":1031.71875,"ha":921,"o":"m 837 0 l 669 0 l 500 409 l 163 0 l 0 0 l 449 519 l 230 1012 l 394 1012 l 552 637 l 873 1012 l 1031 1012 l 602 520 l 837 0 "},"#":{"x_min":65.328125,"x_max":1088.890625,"ha":1040,"o":"m 1088 691 l 1033 591 l 828 591 l 728 410 l 944 410 l 888 310 l 671 310 l 498 -2 l 386 -2 l 560 310 l 387 310 l 210 -2 l 100 -2 l 273 310 l 65 310 l 121 410 l 329 410 l 430 591 l 208 591 l 262 691 l 485 691 l 661 1006 l 773 1006 l 598 691 l 773 691 l 947 1006 l 1058 1006 l 884 691 l 1088 691 m 718 591 l 540 591 l 441 410 l 617 410 l 718 591 "},"ι":{"x_min":71,"x_max":317.421875,"ha":354,"o":"m 277 3 q 226 -9 253 -3 q 175 -15 200 -15 q 94 17 118 -15 q 71 106 71 49 q 73 148 71 132 q 83 200 75 164 l 194 738 l 317 738 l 209 215 q 202 181 205 199 q 199 150 199 163 q 208 114 199 127 q 243 102 218 102 q 275 106 260 102 q 301 113 291 110 l 277 3 "},"Ά":{"x_min":0,"x_max":888.8125,"ha":962,"o":"m 495 1039 l 254 800 l 172 800 l 360 1039 l 495 1039 m 888 0 l 741 0 l 700 302 l 310 302 l 140 0 l 0 0 l 581 1012 l 730 1012 l 888 0 m 686 420 l 624 866 l 375 420 l 686 420 "},")":{"x_min":-61.53125,"x_max":409,"ha":406,"o":"m 387 365 q 254 19 350 191 q 24 -290 162 -141 l -61 -290 q 142 21 66 -126 q 263 360 228 186 q 291 605 291 485 q 271 808 291 710 q 213 1024 252 907 l 299 1024 q 381 805 353 915 q 409 572 409 696 q 387 365 409 468 "},"ε":{"x_min":38,"x_max":690,"ha":700,"o":"m 670 235 q 519 38 635 111 q 288 -25 416 -25 q 118 19 189 -25 q 38 159 38 70 q 42 204 38 180 q 102 313 55 265 q 208 390 140 352 q 157 449 176 414 q 139 524 139 484 q 141 555 139 535 q 261 712 162 655 q 449 763 347 763 q 621 709 552 763 q 690 560 690 655 q 685 515 690 540 l 577 515 q 540 618 577 580 q 439 657 504 657 q 336 630 387 657 q 262 547 273 598 q 260 522 260 527 q 338 444 260 462 q 473 435 381 435 l 451 332 l 412 332 q 268 315 318 332 q 165 211 182 287 q 163 184 163 191 q 210 102 163 133 q 312 76 253 76 q 453 117 389 76 q 548 235 517 158 l 670 235 "},"Δ":{"x_min":0,"x_max":933.71875,"ha":1007,"o":"m 933 -1 l 0 -1 l 604 1012 l 752 1012 l 933 -1 m 773 123 l 647 866 l 209 123 l 773 123 "},"}":{"x_min":-59.46875,"x_max":558.3125,"ha":566,"o":"m 536 314 q 312 158 349 314 q 259 -130 284 13 q -59 -286 193 -286 l -37 -182 q 152 -62 110 -182 q 199 179 176 58 q 375 365 238 323 q 297 423 320 384 q 274 512 274 461 q 302 665 274 562 q 331 808 331 767 q 303 885 331 860 q 192 915 271 915 l 212 1015 q 411 969 352 1015 q 460 852 460 930 q 439 731 460 804 q 392 534 392 564 q 426 450 392 478 q 558 417 467 417 l 536 314 "},"‰":{"x_min":142,"x_max":1696,"ha":1784,"o":"m 829 0 q 682 55 734 0 q 636 187 636 105 q 714 390 636 300 q 931 489 800 489 q 1078 433 1028 489 q 1125 300 1125 383 q 1045 98 1125 188 q 829 0 958 0 m 849 103 q 968 157 921 103 q 1016 278 1016 212 q 991 353 1016 325 q 908 385 962 385 q 789 330 836 385 q 742 209 742 275 q 768 132 742 162 q 849 103 795 103 m 1078 986 l 273 -26 l 190 -26 l 995 986 l 1078 986 m 335 468 q 188 524 239 468 q 142 659 142 576 q 219 860 142 771 q 434 958 303 958 q 581 902 529 958 q 629 769 629 851 q 551 566 629 655 q 335 468 465 468 m 416 855 q 292 799 340 855 q 244 678 244 744 q 271 601 244 631 q 355 572 299 572 q 482 628 431 572 q 527 745 527 680 q 499 824 527 793 q 416 855 472 855 m 1401 0 q 1254 55 1305 0 q 1208 187 1208 105 q 1286 390 1208 300 q 1502 489 1372 489 q 1649 433 1599 489 q 1696 300 1696 383 q 1617 98 1696 188 q 1401 0 1530 0 m 1421 103 q 1540 157 1493 103 q 1587 278 1587 212 q 1562 353 1587 325 q 1479 385 1534 385 q 1360 330 1407 385 q 1314 209 1314 275 q 1340 132 1314 162 q 1421 103 1366 103 "},"a":{"x_min":34,"x_max":721,"ha":778,"o":"m 684 0 q 598 -16 638 -16 q 529 12 549 -16 q 510 95 510 41 q 377 6 454 38 q 225 -25 300 -25 q 85 17 137 -25 q 34 138 34 59 q 40 194 34 162 q 198 390 69 333 q 413 436 266 420 q 577 483 560 451 q 587 504 583 494 q 594 527 591 513 q 597 547 597 540 q 554 625 597 597 q 455 654 512 654 q 334 616 389 654 q 257 514 279 579 l 140 514 q 267 703 169 634 q 487 772 366 772 q 650 724 586 772 q 721 581 721 672 q 721 552 721 566 q 715 532 716 537 l 638 163 q 633 124 633 135 q 640 99 633 108 q 669 90 648 90 l 704 94 l 684 0 m 534 262 l 557 372 q 397 341 535 363 q 167 201 190 308 q 165 173 165 181 q 195 105 165 128 q 276 83 226 83 q 432 130 356 83 q 534 262 518 184 "},"—":{"x_min":70.78125,"x_max":1008.578125,"ha":1018,"o":"m 993 335 l 70 335 l 85 411 l 1008 411 l 993 335 "},"=":{"x_min":58.53125,"x_max":892.890625,"ha":776,"o":"m 872 510 l 115 510 l 136 606 l 892 606 l 872 510 m 815 235 l 58 235 l 78 332 l 835 332 l 815 235 "},"N":{"x_min":0,"x_max":997.703125,"ha":896,"o":"m 785 0 l 638 0 l 300 821 l 127 0 l 0 0 l 212 1012 l 360 1012 l 696 191 l 869 1012 l 997 1012 l 785 0 "},"ρ":{"x_min":-58.96875,"x_max":786.3125,"ha":781,"o":"m 775 368 q 627 93 741 206 q 349 -27 505 -27 q 225 2 281 -27 q 134 82 169 31 l 58 -278 l -58 -278 l 75 361 q 225 642 111 529 q 508 763 348 763 q 716 678 642 763 q 786 470 786 600 q 775 368 786 424 m 647 366 q 654 407 651 386 q 657 449 657 428 q 617 589 657 535 q 488 651 572 651 q 303 562 382 651 q 209 370 233 484 q 201 288 201 328 q 239 145 201 197 q 369 84 282 84 q 554 174 474 84 q 647 366 624 253 "},"2":{"x_min":58.53125,"x_max":868,"ha":776,"o":"m 717 0 l 58 0 q 261 313 98 187 q 551 487 265 316 q 730 691 707 580 q 735 731 735 712 q 692 831 735 795 q 585 867 650 867 q 438 811 504 867 q 337 630 362 747 l 212 630 q 368 901 248 803 q 606 986 472 986 q 791 924 715 986 q 868 755 868 862 q 868 734 868 744 q 862 694 868 724 q 696 449 829 541 q 436 316 566 382 q 223 122 281 234 l 743 122 l 717 0 "},"¯":{"x_min":216.421875,"x_max":1155.578125,"ha":919,"o":"m 1139 1033 l 216 1033 l 232 1109 l 1155 1109 l 1139 1033 "},"Z":{"x_min":0,"x_max":975.921875,"ha":832,"o":"m 763 -1 l 0 -1 l 24 113 l 796 895 l 227 895 l 251 1012 l 975 1012 l 950 886 l 193 123 l 789 123 l 763 -1 "},"u":{"x_min":45,"x_max":758.234375,"ha":715,"o":"m 604 0 l 488 0 l 511 109 q 385 11 461 47 q 235 -25 310 -25 q 92 29 140 -25 q 45 173 45 83 q 46 215 45 200 q 54 258 47 230 l 153 737 l 276 737 l 182 284 q 174 215 174 251 q 200 119 174 156 q 285 82 227 82 q 460 165 379 82 q 554 340 533 241 l 637 737 l 758 737 l 604 0 "},"k":{"x_min":0,"x_max":755.421875,"ha":683,"o":"m 755 738 l 430 464 l 596 0 l 460 0 l 326 381 l 171 251 l 118 0 l 0 0 l 212 1012 l 330 1012 l 202 402 l 602 738 l 755 738 "},"Η":{"x_min":0,"x_max":999.0625,"ha":898,"o":"m 786 0 l 653 0 l 752 474 l 236 474 l 137 0 l 0 0 l 212 1012 l 349 1012 l 262 598 l 778 598 l 865 1012 l 999 1012 l 786 0 "},"Α":{"x_min":0,"x_max":888.8125,"ha":965,"o":"m 888 0 l 741 0 l 700 302 l 310 302 l 140 0 l 0 0 l 581 1012 l 730 1012 l 888 0 m 686 420 l 624 866 l 375 420 l 686 420 "},"s":{"x_min":44,"x_max":689,"ha":684,"o":"m 637 217 q 500 36 614 104 q 282 -23 399 -23 q 110 28 176 -23 q 44 175 44 79 q 44 195 44 186 q 50 238 44 204 l 169 238 q 165 203 165 218 q 205 115 165 146 q 312 85 246 85 q 431 112 376 85 q 513 207 500 146 q 515 218 515 212 q 515 226 515 224 q 419 310 515 282 q 230 365 323 337 q 130 497 130 409 q 130 516 130 508 q 135 544 130 523 q 257 708 156 648 q 452 761 346 761 q 615 716 550 761 q 689 579 689 666 q 689 551 689 565 q 683 532 684 537 l 565 532 q 568 558 568 551 q 527 632 568 607 q 430 657 486 657 q 328 636 374 657 q 257 558 268 609 q 255 536 255 541 q 350 454 255 480 q 540 403 446 427 q 643 268 643 360 q 643 238 643 253 q 637 217 638 222 "},"B":{"x_min":-0.078125,"x_max":883,"ha":859,"o":"m 683 545 q 794 487 755 535 q 833 367 833 439 q 827 310 833 336 q 677 82 797 170 q 423 -1 563 -1 l 0 -1 l 212 1012 l 614 1012 q 800 967 727 1012 q 883 818 883 916 q 883 788 883 803 q 877 767 878 773 q 809 632 862 692 q 683 545 756 571 m 572 898 l 323 898 l 258 587 l 494 587 q 641 623 575 587 q 736 743 718 666 q 739 774 739 755 q 688 865 739 832 q 572 898 638 898 m 436 123 q 590 168 519 123 q 685 302 668 218 q 690 337 690 321 q 627 444 690 406 q 494 476 574 476 l 235 476 l 161 123 l 436 123 "},"…":{"x_min":0,"x_max":632.921875,"ha":694,"o":"m 138 0 l 0 0 l 31 151 l 170 151 l 138 0 m 370 0 l 231 0 l 262 151 l 401 151 l 370 0 m 601 0 l 462 0 l 494 151 l 632 151 l 601 0 "},"?":{"x_min":147.890625,"x_max":762,"ha":690,"o":"m 757 777 q 654 599 736 676 q 507 474 580 537 q 406 271 425 391 l 288 271 q 386 487 308 397 q 529 619 391 494 q 622 762 607 691 q 627 804 627 786 q 589 897 627 862 q 496 933 552 933 q 365 880 425 933 q 269 707 297 819 l 147 707 q 293 963 181 873 q 513 1044 392 1044 q 689 985 616 1044 q 762 830 762 926 q 762 809 762 820 q 757 777 762 798 m 361 0 l 225 0 l 256 151 l 392 151 l 361 0 "},"H":{"x_min":0,"x_max":999.0625,"ha":897,"o":"m 786 0 l 653 0 l 752 474 l 236 474 l 137 0 l 0 0 l 212 1012 l 349 1012 l 262 598 l 778 598 l 865 1012 l 999 1012 l 786 0 "},"ν":{"x_min":153.8125,"x_max":815.3125,"ha":746,"o":"m 815 737 l 396 0 l 266 0 l 153 737 l 284 737 l 364 147 l 684 737 l 815 737 "},"c":{"x_min":67,"x_max":780,"ha":760,"o":"m 743 264 q 583 53 696 133 q 341 -26 471 -26 q 137 53 207 -26 q 67 262 67 132 q 79 370 67 313 q 226 645 114 538 q 506 761 345 761 q 704 688 628 761 q 780 493 780 615 l 649 493 q 602 606 649 562 q 485 650 555 650 q 302 563 378 650 q 209 372 234 487 q 202 330 205 351 q 200 289 200 309 q 239 149 200 203 q 370 88 284 88 q 510 136 446 88 q 610 264 575 185 l 743 264 "},"¶":{"x_min":164.4375,"x_max":775.890625,"ha":664,"o":"m 206 891 l 237 891 l 255 760 l 329 891 l 359 891 l 327 737 l 307 737 l 334 865 l 259 737 l 240 737 l 221 870 l 193 737 l 173 737 l 206 891 m 481 853 l 454 730 q 393 690 446 690 q 368 690 381 690 q 350 695 356 694 l 352 711 l 396 705 q 435 732 427 705 l 442 763 q 394 740 427 740 q 355 777 355 740 q 356 796 355 789 q 436 859 368 859 q 453 859 446 859 q 481 853 461 859 m 460 841 l 435 841 q 374 795 386 841 q 373 781 373 789 q 401 755 373 755 q 449 795 439 755 l 460 841 m 762 987 l 699 987 l 492 -1 l 430 -1 l 637 987 l 517 987 l 310 -1 l 247 -1 l 374 601 q 216 652 278 601 q 164 763 164 696 q 168 805 164 784 q 306 988 190 917 q 523 1052 412 1052 l 775 1052 l 762 987 "},"β":{"x_min":-58.71875,"x_max":757,"ha":729,"o":"m 576 549 q 677 473 643 527 q 711 346 711 420 q 704 280 711 307 q 579 64 677 151 q 356 -22 482 -22 q 235 4 289 -22 q 141 81 182 31 l 65 -278 l -58 -278 l 123 592 q 241 902 166 799 q 528 1041 343 1041 q 692 981 627 1041 q 757 825 757 921 q 751 770 757 796 q 689 643 736 700 q 576 549 643 585 m 346 79 q 495 138 425 79 q 581 278 565 198 q 586 318 586 299 q 496 445 586 403 q 322 477 426 477 l 344 583 q 519 620 444 583 q 634 761 615 667 q 639 798 639 781 q 600 895 639 857 q 501 934 561 934 q 345 860 409 934 q 269 698 290 798 l 199 361 q 189 259 189 306 q 222 131 189 177 q 346 79 262 79 "},"Μ":{"x_min":0,"x_max":1147.421875,"ha":1047,"o":"m 935 0 l 803 0 l 985 867 l 526 0 l 397 0 l 306 864 l 125 0 l 0 0 l 212 1012 l 408 1012 l 495 158 l 955 1012 l 1147 1012 l 935 0 "},"Ό":{"x_min":167.890625,"x_max":1219,"ha":1193,"o":"m 1204 505 q 1003 132 1156 282 q 623 -29 839 -29 q 347 85 446 -29 q 255 365 255 192 q 259 432 255 394 q 269 505 263 469 q 474 883 317 730 q 856 1046 640 1046 q 1130 930 1033 1046 q 1219 650 1219 825 q 1214 580 1219 618 q 1204 505 1210 543 m 1063 504 q 1076 619 1076 562 q 1017 826 1076 748 q 824 915 950 915 q 548 786 667 915 q 407 504 442 670 q 395 391 395 447 q 456 183 395 262 q 652 95 525 95 q 924 224 807 95 q 1063 504 1028 339 m 490 1040 l 249 800 l 167 800 l 355 1040 l 490 1040 "},"Ή":{"x_min":167.421875,"x_max":1347.5,"ha":1250,"o":"m 1135 0 l 1001 0 l 1101 474 l 585 474 l 485 0 l 348 0 l 560 1012 l 698 1012 l 611 598 l 1127 598 l 1214 1012 l 1347 1012 l 1135 0 m 490 1040 l 249 800 l 167 800 l 355 1040 l 490 1040 "},"•":{"x_min":105,"x_max":769,"ha":760,"o":"m 760 529 q 616 294 732 393 q 367 196 501 196 q 157 293 232 196 q 105 457 105 363 q 105 492 105 473 q 110 529 105 511 q 254 763 139 665 q 505 861 370 861 q 714 762 642 861 q 769 600 769 690 q 760 529 769 566 "},"¥":{"x_min":186.46875,"x_max":1015.390625,"ha":868,"o":"m 669 561 l 800 561 l 784 486 l 612 486 l 559 416 l 552 380 l 763 380 l 745 306 l 536 306 l 472 0 l 334 0 l 398 306 l 186 306 l 202 380 l 415 380 l 421 416 l 398 486 l 224 486 l 239 561 l 370 561 l 212 1012 l 349 1012 l 514 533 l 877 1012 l 1015 1012 l 669 561 "},"(":{"x_min":54,"x_max":524.53125,"ha":406,"o":"m 249 -290 l 163 -290 q 83 -71 112 -187 q 54 162 54 44 q 75 365 54 264 q 208 712 112 542 q 438 1024 295 867 l 524 1024 q 319 705 395 857 q 196 360 234 539 q 172 125 172 236 q 191 -81 172 21 q 249 -290 211 -184 "},"U":{"x_min":72,"x_max":992,"ha":886,"o":"m 861 392 q 687 93 824 212 q 373 -25 550 -25 q 150 60 228 -25 q 72 284 72 145 q 72 339 72 322 q 81 392 72 356 l 212 1012 l 346 1012 l 216 391 q 208 318 208 354 q 259 165 208 223 q 408 107 310 107 q 611 189 523 107 q 723 391 699 272 l 854 1012 l 992 1012 l 861 392 "},"γ":{"x_min":136.109375,"x_max":883.359375,"ha":806,"o":"m 883 737 l 464 53 l 394 -278 l 272 -278 l 341 53 l 254 495 q 228 596 239 573 q 149 651 202 651 l 136 651 l 157 751 l 196 751 q 313 710 274 751 q 360 594 345 675 l 438 208 l 758 737 l 883 737 "},"α":{"x_min":67,"x_max":826.765625,"ha":793,"o":"m 749 -3 q 682 -13 710 -13 q 573 97 573 -13 q 458 7 522 40 q 325 -26 393 -26 q 134 60 201 -26 q 67 272 67 146 q 77 369 67 318 q 220 637 110 525 q 490 760 340 760 q 608 728 558 760 q 685 637 659 696 l 706 739 l 826 739 l 717 222 q 712 190 715 208 q 709 156 709 171 q 719 110 709 126 q 754 95 728 95 q 770 96 765 95 l 749 -3 m 649 371 q 658 453 658 412 q 619 593 658 541 q 489 653 576 653 q 305 566 384 653 q 211 379 234 490 q 202 290 202 339 q 238 146 202 199 q 369 83 282 83 q 555 176 475 83 q 649 371 625 257 "},"F":{"x_min":0,"x_max":882,"ha":702,"o":"m 856 887 l 323 887 l 259 583 l 724 583 l 698 458 l 234 458 l 137 0 l 0 0 l 212 1012 l 882 1012 l 856 887 "},"­":{"x_min":70.78125,"x_max":777.203125,"ha":787,"o":"m 762 335 l 70 335 l 85 411 l 777 411 l 762 335 "},":":{"x_min":0,"x_max":292.640625,"ha":234,"o":"m 261 585 l 122 585 l 153 738 l 292 738 l 261 585 m 138 0 l 0 0 l 31 151 l 170 151 l 138 0 "},"Χ":{"x_min":0,"x_max":1031.71875,"ha":916,"o":"m 837 0 l 669 0 l 500 409 l 163 0 l 0 0 l 449 519 l 230 1012 l 394 1012 l 552 637 l 873 1012 l 1031 1012 l 602 520 l 837 0 "},"*":{"x_min":274.9375,"x_max":822.109375,"ha":776,"o":"m 822 767 l 616 713 l 713 544 l 609 477 l 524 652 l 370 480 l 289 544 l 458 713 l 274 766 l 334 875 l 506 812 l 548 1012 l 650 1012 l 608 812 l 807 874 l 822 767 "},"†":{"x_min":142.921875,"x_max":931,"ha":818,"o":"m 617 804 l 931 804 l 905 682 l 592 682 l 449 0 l 313 0 l 455 682 l 142 682 l 168 804 l 481 804 l 525 1013 l 661 1013 l 617 804 "},"°":{"x_min":200,"x_max":549,"ha":436,"o":"m 339 803 q 235 841 270 803 q 200 937 200 880 q 255 1082 200 1018 q 411 1153 317 1153 q 516 1112 479 1153 q 549 1016 549 1076 q 493 873 549 937 q 339 803 431 803 m 355 885 q 433 919 403 885 q 463 996 463 954 q 445 1044 463 1025 q 393 1064 427 1064 q 315 1029 345 1064 q 286 953 286 994 q 303 904 286 923 q 355 885 321 885 "},"V":{"x_min":212.328125,"x_max":1057.578125,"ha":921,"o":"m 1057 1012 l 495 0 l 353 0 l 212 1012 l 352 1012 l 460 165 l 916 1012 l 1057 1012 "},"Ξ":{"x_min":0,"x_max":921.46875,"ha":747,"o":"m 895 888 l 196 888 l 221 1012 l 921 1012 l 895 888 m 756 462 l 156 462 l 183 588 l 784 588 l 756 462 m 720 -1 l 0 -1 l 25 123 l 745 123 l 720 -1 "}," ":{"x_min":0,"x_max":0,"ha":836},"Ϋ":{"x_min":212.328125,"x_max":1015.390625,"ha":871,"o":"m 794 1046 l 669 1046 l 699 1189 l 824 1189 l 794 1046 m 571 1046 l 446 1046 l 476 1189 l 601 1189 l 571 1046 m 1015 1012 l 559 416 l 472 0 l 334 0 l 421 416 l 212 1012 l 349 1012 l 514 533 l 877 1012 l 1015 1012 "},"0":{"x_min":152,"x_max":822,"ha":776,"o":"m 380 -29 q 206 66 266 -29 q 152 301 152 154 q 274 755 152 543 q 593 989 409 989 q 767 891 707 989 q 822 657 822 804 q 699 202 822 414 q 380 -29 564 -29 m 405 89 q 619 277 526 89 q 705 640 705 451 q 673 804 705 744 q 568 871 638 871 q 354 682 447 871 q 269 319 269 508 q 302 152 269 215 q 405 89 335 89 "},"”":{"x_min":140.1875,"x_max":552.609375,"ha":445,"o":"m 314 851 q 253 737 300 785 q 140 670 206 690 l 153 734 q 223 787 197 741 q 253 872 242 819 l 182 872 l 212 1012 l 348 1012 l 314 851 m 518 851 q 458 737 504 785 q 344 670 411 690 l 357 734 q 427 787 401 741 q 457 872 446 819 l 386 872 l 416 1012 l 552 1012 l 518 851 "},"@":{"x_min":63,"x_max":1353,"ha":1330,"o":"m 1066 -45 q 825 -160 955 -118 q 578 -203 695 -203 q 185 -72 321 -203 q 63 238 63 45 q 288 752 63 517 q 884 1008 535 1008 q 1245 889 1123 1008 q 1353 619 1353 787 q 1213 253 1353 419 q 867 80 1067 80 q 786 98 813 80 q 760 159 760 116 q 765 201 760 180 q 659 112 716 143 q 535 81 601 81 q 407 126 449 81 q 366 247 366 171 q 484 535 366 393 q 770 690 612 690 q 917 588 888 690 l 971 667 l 1058 667 q 952 440 994 531 q 864 224 872 265 q 863 209 863 219 q 878 176 863 188 q 918 165 894 165 q 1149 304 1046 165 q 1252 602 1252 444 q 1166 827 1252 742 q 867 925 1067 925 q 354 701 566 925 q 160 252 160 495 q 260 -10 160 87 q 589 -122 373 -122 q 820 -88 696 -122 q 1041 6 944 -54 l 1066 -45 m 872 488 q 843 580 872 546 q 759 615 813 615 q 562 492 652 615 q 478 266 478 378 q 501 184 478 214 q 574 155 524 155 q 766 273 686 155 q 872 488 789 308 "},"Ί":{"x_min":167.421875,"x_max":700.96875,"ha":600,"o":"m 490 1040 l 249 800 l 167 800 l 355 1040 l 490 1040 m 488 0 l 352 0 l 564 1012 l 700 1012 l 488 0 "},"i":{"x_min":13.609375,"x_max":345.71875,"ha":270,"o":"m 315 872 l 196 872 l 225 1012 l 345 1012 l 315 872 m 133 0 l 13 0 l 167 737 l 287 737 l 133 0 "},"Β":{"x_min":-0.078125,"x_max":883,"ha":859,"o":"m 683 545 q 794 487 755 535 q 833 367 833 439 q 827 310 833 336 q 677 82 797 170 q 423 -1 563 -1 l 0 -1 l 212 1012 l 614 1012 q 800 967 727 1012 q 883 818 883 916 q 883 788 883 803 q 877 767 878 773 q 809 632 862 692 q 683 545 756 571 m 572 898 l 323 898 l 258 587 l 494 587 q 641 623 575 587 q 736 743 718 666 q 739 774 739 755 q 688 865 739 832 q 572 898 638 898 m 436 123 q 590 168 519 123 q 685 302 668 218 q 690 337 690 321 q 627 444 690 406 q 494 476 574 476 l 235 476 l 161 123 l 436 123 "},"υ":{"x_min":63,"x_max":759.9375,"ha":711,"o":"m 678 352 q 550 94 646 199 q 297 -24 441 -24 q 118 56 180 -24 q 63 248 63 130 q 73 352 63 296 l 155 738 l 279 738 l 199 354 q 191 275 191 317 q 220 153 191 200 q 327 98 256 98 q 482 185 415 98 q 557 354 536 256 l 637 738 l 759 738 l 678 352 "},"]":{"x_min":-58.53125,"x_max":481.828125,"ha":365,"o":"m 210 -281 l -58 -281 l -39 -187 l 108 -187 l 340 919 l 191 919 l 212 1012 l 481 1012 l 210 -281 "},"m":{"x_min":-0.359375,"x_max":1112,"ha":1105,"o":"m 998 0 l 878 0 l 974 453 q 979 482 978 473 q 981 513 981 492 q 955 614 981 577 q 863 659 925 659 q 723 585 785 659 q 652 435 670 521 l 561 0 l 437 0 l 533 453 q 540 516 540 488 q 515 613 540 578 q 425 655 486 655 q 284 584 346 655 q 210 435 229 521 l 119 0 l 0 0 l 154 738 l 269 738 l 248 639 q 350 728 290 695 q 469 761 409 761 q 582 728 533 761 q 650 639 631 695 q 761 730 693 699 q 898 762 828 762 q 1053 709 994 762 q 1112 567 1112 657 q 1106 511 1112 538 l 998 0 "},"χ":{"x_min":-49,"x_max":865.671875,"ha":799,"o":"m 706 -279 q 639 -295 672 -295 q 549 -258 588 -295 q 500 -176 517 -227 l 400 133 l 81 -278 l -49 -278 l 360 253 l 269 521 q 247 585 251 577 q 170 640 224 640 q 141 637 163 640 l 166 752 l 209 757 q 308 719 269 757 q 363 627 341 687 l 453 372 l 736 737 l 865 737 l 491 249 l 597 -69 q 624 -154 611 -111 q 688 -189 642 -189 q 726 -184 703 -189 l 706 -279 "},"8":{"x_min":106,"x_max":846,"ha":775,"o":"m 670 528 q 756 448 727 499 q 786 338 786 397 q 674 93 786 203 q 382 -26 553 -26 q 174 47 248 -26 q 106 218 106 114 q 163 399 106 313 q 326 528 221 485 q 256 597 278 557 q 235 683 235 636 q 338 887 235 794 q 594 986 448 986 q 780 922 711 986 q 846 773 846 862 q 803 640 846 703 q 670 528 757 571 m 505 566 q 652 625 594 566 q 706 750 706 679 q 671 837 706 802 q 567 872 636 872 q 420 812 478 872 q 367 689 367 758 q 401 601 367 636 q 505 566 436 566 m 406 91 q 583 166 512 91 q 649 321 649 235 q 610 422 649 385 q 485 466 567 466 q 308 392 379 466 q 245 239 245 325 q 283 135 245 174 q 406 91 326 91 "},"ί":{"x_min":71,"x_max":537.921875,"ha":354,"o":"m 277 3 q 226 -9 253 -3 q 175 -15 200 -15 q 94 17 118 -15 q 71 106 71 49 q 73 148 71 132 q 83 200 75 164 l 194 738 l 317 738 l 209 215 q 202 181 205 199 q 199 150 199 163 q 208 114 199 127 q 243 102 218 102 q 275 106 260 102 q 301 113 291 110 l 277 3 m 537 1040 l 306 820 l 224 820 l 403 1040 l 537 1040 "},"Ζ":{"x_min":0,"x_max":975.921875,"ha":833,"o":"m 763 -1 l 0 -1 l 24 113 l 796 895 l 227 895 l 251 1012 l 975 1012 l 950 886 l 193 123 l 789 123 l 763 -1 "},"R":{"x_min":0.109375,"x_max":894,"ha":889,"o":"m 766 0 l 611 0 q 599 70 599 31 q 616 198 599 111 q 633 316 633 285 q 605 399 633 373 q 491 433 571 433 l 227 433 l 136 0 l 0 0 l 212 1012 l 600 1012 q 804 959 723 1012 q 894 789 894 899 q 887 731 894 766 q 821 596 872 659 q 701 502 771 534 q 763 453 746 487 q 781 367 781 419 q 770 268 781 330 q 746 106 746 131 q 771 25 746 52 l 766 0 m 481 551 q 648 594 571 551 q 755 731 737 645 q 758 749 758 739 q 758 763 758 759 q 689 865 758 831 q 553 895 634 895 l 322 895 l 250 551 l 481 551 "},"o":{"x_min":67,"x_max":787,"ha":805,"o":"m 344 -25 q 138 55 209 -25 q 67 266 67 136 q 77 368 67 312 q 226 642 111 533 q 509 761 348 761 q 717 676 642 761 q 787 466 787 597 q 776 368 787 420 q 626 91 740 201 q 344 -25 505 -25 m 367 84 q 554 174 473 84 q 649 369 625 255 q 657 449 657 409 q 618 591 657 538 q 486 651 573 651 q 302 561 381 651 q 209 369 234 483 q 202 327 205 348 q 200 287 200 306 q 238 145 200 198 q 367 84 281 84 "},"5":{"x_min":103,"x_max":870.859375,"ha":776,"o":"m 787 313 q 628 59 753 152 q 378 -24 515 -24 q 186 35 262 -24 q 103 211 103 100 q 105 255 103 239 l 232 255 q 278 130 232 174 q 388 90 320 90 q 551 148 476 90 q 654 313 634 212 q 658 338 657 324 q 660 364 660 353 q 612 483 660 440 q 488 527 564 527 q 384 504 436 527 q 285 438 333 482 l 172 438 l 356 958 l 870 958 l 846 840 l 424 840 l 330 578 q 431 626 380 611 q 533 642 482 642 q 720 570 644 642 q 796 383 796 499 q 787 313 796 350 "},"7":{"x_min":189.1875,"x_max":917.390625,"ha":776,"o":"m 892 839 q 556 448 687 643 q 329 0 424 252 l 189 0 q 416 441 284 249 q 756 830 548 632 l 232 830 l 258 958 l 917 958 l 892 839 "},"K":{"x_min":0,"x_max":1005.859375,"ha":887,"o":"m 803 0 l 637 0 l 394 509 l 210 356 l 136 0 l 0 0 l 212 1012 l 348 1012 l 246 526 l 826 1012 l 1005 1012 l 513 599 l 803 0 "},",":{"x_min":-43.5625,"x_max":170.140625,"ha":234,"o":"m 136 -12 q 74 -133 121 -84 q -43 -206 28 -181 l -28 -138 q 39 -83 14 -124 q 68 0 55 -55 l 0 0 l 31 151 l 170 151 l 136 -12 "},"d":{"x_min":67,"x_max":881.9375,"ha":780,"o":"m 669 0 l 552 0 l 571 92 q 447 5 513 36 q 315 -25 382 -25 q 129 66 197 -25 q 67 274 67 149 q 76 364 67 321 q 221 638 110 524 q 495 762 343 762 q 613 732 563 762 q 688 646 662 703 l 764 1012 l 881 1012 l 669 0 m 647 373 q 656 453 656 413 q 617 592 656 539 q 489 652 574 652 q 302 560 382 652 q 208 364 232 481 q 200 285 200 324 q 239 145 200 199 q 368 84 284 84 q 555 177 476 84 q 647 373 624 259 "},"¨":{"x_min":111.609375,"x_max":490,"ha":227,"o":"m 460 1046 l 334 1046 l 364 1189 l 490 1189 l 460 1046 m 236 1046 l 111 1046 l 141 1189 l 266 1189 l 236 1046 "},"E":{"x_min":0,"x_max":922.828125,"ha":773,"o":"m 721 -1 l 0 -1 l 212 1012 l 922 1012 l 896 888 l 322 888 l 258 584 l 786 584 l 762 466 l 234 466 l 161 124 l 747 124 l 721 -1 "},"Y":{"x_min":212.328125,"x_max":1015.390625,"ha":868,"o":"m 1015 1012 l 559 416 l 472 0 l 334 0 l 421 416 l 212 1012 l 349 1012 l 514 533 l 877 1012 l 1015 1012 "},"\"":{"x_min":126.578125,"x_max":499.53125,"ha":388,"o":"m 419 605 l 325 605 l 405 987 l 499 987 l 419 605 m 220 605 l 126 605 l 206 987 l 300 987 l 220 605 "},"‹":{"x_min":96.640625,"x_max":925.5625,"ha":776,"o":"m 766 41 l 96 376 l 115 465 l 925 798 l 902 691 l 245 420 l 789 149 l 766 41 "},"„":{"x_min":-43.5625,"x_max":387.921875,"ha":457,"o":"m 136 -12 q 74 -133 121 -84 q -43 -206 28 -181 l -28 -138 q 39 -83 14 -124 q 68 0 55 -55 l 0 0 l 31 151 l 170 151 l 136 -12 m 353 -12 q 292 -133 338 -84 q 174 -206 246 -181 l 189 -138 q 257 -83 232 -124 q 285 0 273 -55 l 217 0 l 249 151 l 387 151 l 353 -12 "},"δ":{"x_min":65,"x_max":842.25,"ha":793,"o":"m 771 360 q 623 87 736 195 q 344 -28 503 -28 q 138 52 212 -28 q 65 259 65 133 q 75 356 65 304 q 225 607 108 511 q 495 703 342 703 q 379 804 451 744 q 258 903 298 870 l 281 1012 l 842 1012 l 819 901 l 442 901 q 596 780 581 793 q 725 634 680 706 q 781 444 781 544 q 777 398 781 421 q 771 360 774 374 m 647 364 q 656 434 656 402 q 568 602 656 533 q 492 611 532 611 q 306 541 381 611 q 208 355 232 471 q 200 278 200 317 q 239 142 200 193 q 368 84 284 84 q 553 172 474 84 q 647 364 624 250 "},"έ":{"x_min":38,"x_max":728.125,"ha":700,"o":"m 670 235 q 519 38 635 111 q 288 -25 416 -25 q 118 19 189 -25 q 38 159 38 70 q 42 204 38 180 q 102 313 55 265 q 208 390 140 352 q 157 449 176 414 q 139 524 139 484 q 141 555 139 535 q 261 712 162 655 q 449 763 347 763 q 621 709 552 763 q 690 560 690 655 q 685 515 690 540 l 577 515 q 540 618 577 580 q 439 657 504 657 q 336 630 387 657 q 262 547 273 598 q 260 522 260 527 q 338 444 260 462 q 473 435 381 435 l 451 332 l 412 332 q 268 315 318 332 q 165 211 182 287 q 163 184 163 191 q 210 102 163 133 q 312 76 253 76 q 453 117 389 76 q 548 235 517 158 l 670 235 m 728 1040 l 496 819 l 415 819 l 593 1040 l 728 1040 "},"ω":{"x_min":61,"x_max":985,"ha":1010,"o":"m 974 339 q 859 97 945 203 q 631 -26 757 -26 q 529 9 569 -26 q 473 103 488 44 q 382 12 436 46 q 267 -21 327 -21 q 108 60 163 -21 q 61 243 61 131 q 70 339 61 296 q 160 551 92 444 q 311 737 218 644 l 450 737 q 286 553 352 649 q 191 336 213 444 q 182 251 182 294 q 203 140 182 182 q 286 88 231 88 q 401 162 352 88 q 452 294 437 219 l 511 572 l 632 572 l 573 294 q 565 212 565 258 q 584 123 565 158 q 647 88 602 88 q 784 182 722 88 q 852 342 833 256 q 862 433 862 386 q 835 588 862 515 q 760 738 809 661 l 898 738 q 961 591 938 665 q 985 439 985 517 q 974 339 985 394 "},"´":{"x_min":126.578125,"x_max":300.8125,"ha":246,"o":"m 220 605 l 126 605 l 206 987 l 300 987 l 220 605 "},"±":{"x_min":14.96875,"x_max":887.453125,"ha":776,"o":"m 867 490 l 539 490 l 490 255 l 394 255 l 443 490 l 112 490 l 133 586 l 462 586 l 511 819 l 607 819 l 558 586 l 887 586 l 867 490 m 769 21 l 14 21 l 35 115 l 789 115 l 769 21 "},"|":{"x_min":285.828125,"x_max":646.53125,"ha":776,"o":"m 536 462 l 432 462 l 543 986 l 646 986 l 536 462 m 389 -242 l 285 -242 l 394 280 l 498 280 l 389 -242 "},"ϋ":{"x_min":63,"x_max":759.9375,"ha":711,"o":"m 640 799 l 532 799 l 558 924 l 666 924 l 640 799 m 401 799 l 294 799 l 320 924 l 427 924 l 401 799 m 678 352 q 550 94 646 199 q 297 -24 441 -24 q 118 56 180 -24 q 63 248 63 130 q 73 352 63 296 l 155 738 l 279 738 l 199 354 q 191 275 191 317 q 220 153 191 200 q 327 98 256 98 q 482 185 415 98 q 557 354 536 256 l 637 738 l 759 738 l 678 352 "},"§":{"x_min":63,"x_max":693,"ha":677,"o":"m 670 425 q 610 312 659 369 q 506 233 561 254 q 549 122 549 186 q 544 83 549 103 q 434 -74 524 -12 q 255 -133 352 -133 q 114 -82 166 -133 q 63 50 63 -32 q 67 96 63 72 l 184 96 q 180 64 180 79 q 206 -1 180 22 q 277 -26 233 -26 q 363 -5 321 -26 q 423 60 415 19 q 426 76 426 68 q 426 87 426 83 q 342 204 426 150 q 184 300 262 251 q 98 446 98 364 q 102 490 98 466 q 158 602 114 550 q 265 687 203 654 q 225 783 225 729 q 227 812 225 802 q 336 984 249 919 q 508 1043 413 1043 q 640 997 587 1043 q 693 866 693 952 q 693 845 693 857 q 689 814 693 834 l 573 814 q 575 836 575 822 q 547 912 575 886 q 481 939 520 939 q 399 911 437 939 q 353 841 361 884 q 352 820 352 834 q 434 719 352 770 q 591 625 512 672 q 676 473 676 559 q 676 450 676 461 q 670 425 671 433 m 543 409 q 545 428 545 415 q 417 576 545 497 q 324 630 370 602 q 265 587 286 608 q 231 525 238 559 q 230 508 230 519 q 323 380 230 448 q 453 298 428 315 q 512 346 487 316 q 543 409 536 375 "},"b":{"x_min":-0.21875,"x_max":758,"ha":768,"o":"m 748 371 q 605 99 715 213 q 334 -25 485 -25 q 216 5 266 -25 q 137 92 165 35 l 118 0 l 0 0 l 212 1012 l 330 1012 l 251 634 q 361 723 299 692 q 492 753 424 753 q 689 667 616 753 q 758 462 758 587 q 748 371 758 414 m 617 356 q 624 398 621 377 q 627 439 627 419 q 587 582 627 528 q 456 644 542 644 q 276 556 354 644 q 183 369 205 478 q 176 327 179 348 q 174 285 174 306 q 212 144 174 196 q 341 83 255 83 q 523 169 444 83 q 617 356 592 245 "},"q":{"x_min":65,"x_max":823.046875,"ha":858,"o":"m 610 -278 l 493 -278 l 572 96 q 465 7 530 38 q 333 -24 399 -24 q 135 58 205 -24 q 65 267 65 141 q 75 363 65 311 q 218 634 108 520 q 489 759 339 759 q 685 637 631 759 l 706 737 l 823 737 l 610 -278 m 648 374 q 657 451 657 412 q 617 591 657 538 q 486 651 572 651 q 304 564 383 651 q 210 376 233 487 q 203 334 206 355 q 201 291 201 313 q 240 146 201 202 q 371 83 285 83 q 556 178 477 83 q 648 374 624 260 "},"Ω":{"x_min":-0.5,"x_max":1065,"ha":1046,"o":"m 948 0 l 543 0 l 569 124 q 792 309 699 194 q 913 558 884 423 q 923 651 923 602 q 859 844 923 772 q 667 922 791 922 q 410 821 520 922 q 268 568 301 720 q 258 468 258 512 q 303 274 258 364 q 429 124 349 185 l 403 0 l 0 0 l 25 124 l 238 124 q 122 452 122 258 q 134 572 122 511 q 332 911 177 781 q 692 1041 486 1041 q 964 943 864 1041 q 1065 683 1065 845 q 1052 569 1065 630 q 949 326 1026 443 q 759 124 871 210 l 974 124 l 948 0 "},"ύ":{"x_min":63,"x_max":759.9375,"ha":711,"o":"m 678 352 q 550 94 646 199 q 297 -24 441 -24 q 118 56 180 -24 q 63 248 63 130 q 73 352 63 296 l 155 738 l 279 738 l 199 354 q 191 275 191 317 q 220 153 191 200 q 327 98 256 98 q 482 185 415 98 q 557 354 536 256 l 637 738 l 759 738 l 678 352 m 742 1040 l 510 819 l 429 819 l 607 1040 l 742 1040 "},"z":{"x_min":0,"x_max":736.359375,"ha":683,"o":"m 601 0 l 0 0 l 20 99 l 556 629 l 152 629 l 174 737 l 736 737 l 715 635 l 183 109 l 624 109 l 601 0 "},"™":{"x_min":198.71875,"x_max":1087.53125,"ha":980,"o":"m 579 951 l 423 951 l 329 502 l 261 502 l 355 948 l 198 948 l 212 1011 l 593 1011 l 579 951 m 980 502 l 914 502 l 1005 938 l 775 502 l 711 502 l 666 937 l 575 502 l 513 502 l 620 1011 l 718 1011 l 762 581 l 992 1011 l 1087 1011 l 980 502 "},"ή":{"x_min":79.078125,"x_max":796,"ha":793,"o":"m 624 -278 l 502 -278 l 656 453 q 663 520 663 491 q 638 611 663 577 q 552 650 609 650 q 387 579 466 650 q 289 420 307 509 l 201 0 l 79 0 l 181 489 q 190 535 186 517 q 193 574 193 553 q 182 623 193 607 q 134 644 167 644 l 155 741 q 224 755 193 755 q 302 721 277 755 q 328 630 328 688 q 442 726 374 692 q 585 761 511 761 q 737 709 679 761 q 796 570 796 658 q 796 545 796 557 q 790 516 791 526 l 624 -278 m 687 1040 l 456 819 l 374 819 l 552 1040 l 687 1040 "},"Θ":{"x_min":91,"x_max":1061,"ha":1034,"o":"m 1046 506 q 843 129 998 280 q 459 -32 677 -32 q 182 81 280 -32 q 91 365 91 188 q 106 507 91 430 q 305 883 153 733 q 685 1044 469 1044 q 967 928 866 1044 q 1061 644 1061 821 q 1046 506 1061 580 m 904 499 q 917 617 917 558 q 857 831 917 750 q 659 923 789 923 q 385 791 503 923 q 245 506 280 674 q 233 387 233 445 q 291 177 233 256 q 485 89 356 89 q 761 218 640 89 q 904 499 870 334 m 795 449 l 332 449 l 358 571 l 821 571 l 795 449 "},"®":{"x_min":90,"x_max":1107,"ha":1084,"o":"m 606 532 q 721 562 668 532 q 796 658 784 598 q 799 681 799 674 q 756 750 799 729 q 656 772 713 772 l 494 772 l 444 532 l 606 532 m 491 -7 q 186 109 294 -7 q 90 383 90 215 q 254 805 90 617 q 705 1011 434 1011 q 1010 894 904 1011 q 1107 619 1107 788 q 943 198 1107 384 q 491 -7 763 -7 m 505 60 q 895 239 739 60 q 1038 604 1038 401 q 954 842 1038 751 q 690 944 862 944 q 301 765 457 944 q 158 398 158 601 q 241 161 158 252 q 505 60 333 60 m 803 145 l 696 145 q 688 194 688 169 q 694 259 688 222 q 711 366 711 350 q 692 425 711 405 q 611 449 667 449 l 426 449 l 362 146 l 267 146 l 415 854 l 687 854 q 830 817 776 854 q 893 699 893 776 q 888 658 893 681 q 843 563 878 606 q 760 497 808 520 q 803 463 791 486 q 816 404 816 440 q 797 286 816 380 q 790 219 790 243 q 807 164 790 180 l 803 145 "},"~":{"x_min":138.828125,"x_max":1016.75,"ha":912,"o":"m 1016 958 q 921 753 990 831 q 721 665 841 665 q 553 761 631 665 q 415 857 476 857 q 295 795 341 857 q 240 665 258 746 l 138 665 q 234 867 164 789 q 432 958 314 958 q 602 861 526 958 q 743 765 677 765 q 864 827 819 765 q 914 958 898 874 l 1016 958 "},"Ε":{"x_min":0,"x_max":922.828125,"ha":762,"o":"m 721 -1 l 0 -1 l 212 1012 l 922 1012 l 896 888 l 322 888 l 258 584 l 786 584 l 762 466 l 234 466 l 161 124 l 747 124 l 721 -1 "},"³":{"x_min":113,"x_max":592,"ha":536,"o":"m 556 552 q 457 414 537 466 q 294 367 383 367 q 167 404 216 367 q 113 521 113 446 q 113 538 113 530 q 118 567 113 546 l 201 567 q 199 548 199 558 q 199 535 199 539 q 230 462 199 487 q 311 438 262 438 q 411 468 366 438 q 468 553 457 499 q 471 576 471 569 q 435 637 471 618 q 348 657 400 657 q 329 657 339 657 q 310 654 315 654 l 324 722 q 428 733 396 722 q 497 815 485 752 q 499 826 499 821 q 499 835 499 832 q 472 886 499 866 q 406 907 446 907 q 314 875 356 907 q 258 781 272 844 l 178 781 q 272 926 198 875 q 420 972 337 972 q 543 938 494 972 q 592 846 592 905 q 589 818 592 837 q 483 697 570 731 q 561 586 561 670 q 556 552 561 569 "},"[":{"x_min":-58.53125,"x_max":480.46875,"ha":363,"o":"m 209 -281 l -58 -281 l 212 1012 l 480 1012 l 460 919 l 313 919 l 81 -187 l 228 -187 l 209 -281 "},"L":{"x_min":0,"x_max":658.78125,"ha":682,"o":"m 632 0 l 0 0 l 212 1012 l 349 1012 l 163 126 l 658 126 l 632 0 "},"σ":{"x_min":67,"x_max":943.171875,"ha":876,"o":"m 920 628 l 753 628 q 788 465 788 557 q 777 368 788 420 q 626 93 741 204 q 345 -25 503 -25 q 139 56 212 -25 q 67 266 67 137 q 77 368 67 312 q 227 644 111 533 q 509 761 349 761 q 630 750 549 761 q 752 739 710 739 l 943 739 l 920 628 m 371 84 q 556 180 475 84 q 651 375 627 263 q 660 451 660 415 q 617 593 660 540 q 481 651 571 651 q 301 559 378 651 q 210 368 233 479 q 202 286 202 326 q 240 145 202 197 q 371 84 284 84 "},"ζ":{"x_min":50,"x_max":761.859375,"ha":628,"o":"m 552 -40 q 507 -162 539 -97 q 440 -278 490 -194 l 333 -278 q 405 -162 380 -209 q 432 -90 425 -122 q 435 -68 435 -73 q 367 -14 435 -14 q 139 27 213 -14 q 50 199 50 79 q 60 290 50 237 q 158 524 85 409 q 328 730 225 628 q 534 901 413 813 l 243 901 l 266 1012 l 761 1012 l 742 924 q 394 667 545 830 q 187 296 228 488 q 179 226 179 256 q 368 105 179 105 q 557 7 557 105 q 557 -19 557 -5 q 552 -40 553 -34 "},"θ":{"x_min":84,"x_max":785,"ha":762,"o":"m 763 496 q 621 160 723 305 q 323 -26 492 -26 q 135 79 196 -26 q 84 312 84 168 q 101 485 84 398 q 247 840 142 682 q 554 1044 382 1044 q 737 936 678 1044 q 785 697 785 847 q 763 496 785 600 m 655 579 q 662 683 662 624 q 634 852 662 787 q 524 935 600 935 q 342 798 428 935 q 244 579 281 701 l 655 579 m 633 475 l 222 475 q 216 408 220 454 q 212 333 212 362 q 237 161 212 224 q 347 80 271 80 q 541 233 454 80 q 633 475 602 340 "},"Ο":{"x_min":91,"x_max":1061,"ha":1032,"o":"m 693 1042 q 969 929 871 1042 q 1061 650 1061 823 q 1046 511 1061 585 q 846 136 998 287 q 466 -26 681 -26 q 185 86 286 -26 q 91 365 91 191 q 105 504 91 431 q 308 880 152 731 q 693 1042 476 1042 m 491 98 q 764 225 646 98 q 904 504 870 339 q 917 615 917 561 q 857 824 917 745 q 661 913 789 913 q 386 785 506 913 q 245 504 279 670 q 233 390 233 446 q 294 184 233 261 q 491 98 362 98 "},"Γ":{"x_min":0,"x_max":903.78125,"ha":734,"o":"m 876 886 l 322 886 l 137 0 l 0 0 l 212 1012 l 903 1012 l 876 886 "}," ":{"x_min":0,"x_max":0,"ha":368},"%":{"x_min":142,"x_max":1125,"ha":1163,"o":"m 829 0 q 682 55 734 0 q 636 187 636 105 q 714 390 636 300 q 931 489 800 489 q 1078 433 1028 489 q 1125 300 1125 383 q 1045 98 1125 188 q 829 0 958 0 m 849 103 q 968 157 921 103 q 1016 278 1016 212 q 991 353 1016 325 q 908 385 962 385 q 789 330 836 385 q 742 209 742 275 q 768 132 742 162 q 849 103 795 103 m 1078 986 l 273 -26 l 190 -26 l 995 986 l 1078 986 m 335 468 q 188 524 239 468 q 142 659 142 576 q 219 860 142 771 q 434 958 303 958 q 581 902 529 958 q 629 769 629 851 q 551 566 629 655 q 335 468 465 468 m 416 855 q 292 799 340 855 q 244 678 244 744 q 271 601 244 631 q 355 572 299 572 q 482 628 431 572 q 527 745 527 680 q 499 824 527 793 q 416 855 472 855 "},"P":{"x_min":-0.359375,"x_max":869,"ha":789,"o":"m 628 1012 q 803 950 738 1012 q 869 787 869 889 q 862 719 869 748 q 730 506 833 587 q 495 426 627 426 l 226 426 l 137 -1 l 0 -1 l 211 1012 l 628 1012 m 557 888 l 323 888 l 251 548 l 478 548 q 633 589 563 548 q 731 720 714 638 q 736 754 736 739 q 683 854 736 820 q 557 888 631 888 "},"Έ":{"x_min":167.421875,"x_max":1257.671875,"ha":1096,"o":"m 1056 -1 l 334 -1 l 547 1012 l 1257 1012 l 1231 888 l 657 888 l 593 584 l 1121 584 l 1097 466 l 568 466 l 496 124 l 1082 124 l 1056 -1 m 490 1039 l 249 799 l 167 799 l 355 1039 l 490 1039 "},"Ώ":{"x_min":163.5,"x_max":1229,"ha":1210,"o":"m 1112 0 l 707 0 l 733 124 q 956 309 863 194 q 1077 558 1048 423 q 1087 651 1087 602 q 1023 844 1087 772 q 831 922 955 922 q 574 821 684 922 q 432 568 465 720 q 422 468 422 512 q 467 274 422 364 q 593 124 513 185 l 567 0 l 163 0 l 189 124 l 402 124 q 286 452 286 258 q 298 572 286 511 q 496 911 341 781 q 856 1041 650 1041 q 1128 943 1028 1041 q 1229 683 1229 845 q 1216 569 1229 630 q 1113 326 1190 443 q 923 124 1035 210 l 1138 124 l 1112 0 m 490 1040 l 249 800 l 167 800 l 355 1040 l 490 1040 "},"_":{"x_min":-69.421875,"x_max":642.453125,"ha":787,"o":"m 622 -333 l -69 -333 l -49 -233 l 642 -233 l 622 -333 "},"Ϊ":{"x_min":0,"x_max":490,"ha":270,"o":"m 460 1045 l 334 1045 l 364 1188 l 490 1188 l 460 1045 m 236 1045 l 111 1045 l 141 1188 l 266 1188 l 236 1045 m 133 0 l 0 0 l 212 1012 l 345 1012 l 133 0 "},"+":{"x_min":100.71875,"x_max":850.703125,"ha":776,"o":"m 830 372 l 513 372 l 435 0 l 340 0 l 417 372 l 100 372 l 121 468 l 436 468 l 514 840 l 609 840 l 532 468 l 850 468 l 830 372 "},"½":{"x_min":122.140625,"x_max":1113,"ha":1125,"o":"m 1030 0 l 612 0 q 736 179 633 106 q 917 277 750 190 q 1027 386 1015 330 q 1030 406 1030 400 q 1003 462 1030 442 q 934 483 976 483 q 840 452 881 483 q 779 353 793 416 l 700 353 q 795 502 721 448 q 948 551 863 551 q 1065 516 1017 551 q 1113 420 1113 481 q 1108 386 1113 405 q 1009 251 1091 301 q 848 179 929 215 q 715 68 752 133 l 1043 68 l 1030 0 m 1024 984 l 205 -27 l 122 -27 l 941 984 l 1024 984 m 307 422 l 226 422 l 308 811 l 169 811 l 180 867 q 288 889 241 867 q 364 973 345 916 l 422 973 l 307 422 "},"Ρ":{"x_min":-0.359375,"x_max":865.3125,"ha":767,"o":"m 628 1012 q 801 952 737 1012 q 865 792 865 892 q 857 722 865 760 q 727 508 829 591 q 495 426 625 426 l 226 426 l 137 -1 l 0 -1 l 211 1012 l 628 1012 m 557 888 l 323 888 l 251 548 l 478 548 q 633 589 563 548 q 731 720 714 638 q 736 754 736 739 q 683 854 736 820 q 557 888 631 888 "},"'":{"x_min":140.1875,"x_max":348.4375,"ha":231,"o":"m 314 851 q 253 737 300 785 q 140 670 206 690 l 153 734 q 223 787 197 741 q 253 872 242 819 l 182 872 l 212 1012 l 348 1012 l 314 851 "},"ª":{"x_min":148,"x_max":491,"ha":389,"o":"m 473 624 q 430 615 450 615 q 396 630 406 615 q 386 672 386 645 q 319 627 357 643 q 243 612 281 612 q 148 695 148 612 q 150 721 148 701 q 242 825 167 799 q 419 865 331 844 l 428 886 q 412 934 433 917 q 358 952 391 952 q 298 933 326 952 q 259 881 270 914 l 200 881 q 264 976 215 942 q 375 1010 313 1010 q 456 985 422 1010 q 491 915 491 960 q 488 890 491 907 l 449 706 q 447 686 447 692 q 464 670 447 670 l 482 670 l 473 624 m 398 756 l 410 810 q 298 789 338 797 q 214 725 223 772 q 213 711 213 719 q 268 666 213 666 q 349 690 309 666 q 398 756 390 715 "},"΅":{"x_min":167.421875,"x_max":634.28125,"ha":542,"o":"m 608 800 l 500 800 l 526 925 l 634 925 l 608 800 m 616 1040 l 375 800 l 294 800 l 481 1040 l 616 1040 m 274 800 l 167 800 l 193 925 l 300 925 l 274 800 "},"T":{"x_min":186.46875,"x_max":974.5625,"ha":818,"o":"m 948 893 l 635 893 l 449 0 l 313 0 l 499 891 l 186 891 l 212 1012 l 974 1012 l 948 893 "},"Φ":{"x_min":97,"x_max":1013,"ha":978,"o":"m 516 0 l 381 0 l 407 122 q 182 204 267 122 q 97 423 97 287 q 98 464 97 450 q 106 509 99 478 q 273 785 141 677 q 567 893 404 893 l 593 1012 l 728 1012 l 702 893 q 927 811 842 893 q 1013 596 1013 730 q 1011 555 1013 570 q 1003 509 1010 539 q 837 231 969 341 q 541 122 706 122 l 516 0 m 563 226 q 763 310 676 226 q 869 507 845 389 q 878 580 878 545 q 827 727 878 671 q 680 787 773 787 l 563 226 m 428 226 l 545 787 q 347 698 431 775 q 239 505 264 621 q 235 475 237 495 q 233 435 233 455 q 284 285 233 344 q 428 226 335 226 "},"j":{"x_min":-134.75,"x_max":375.671875,"ha":342,"o":"m 345 870 l 223 870 l 253 1012 l 375 1012 l 345 870 m 147 -81 q 70 -231 123 -185 q -84 -278 17 -278 l -134 -278 l -110 -163 l -74 -163 q -4 -142 -23 -163 q 27 -64 14 -121 l 194 737 l 317 737 l 147 -81 "},"Σ":{"x_min":0,"x_max":943.25,"ha":803,"o":"m 741 -1 l 0 -1 l 21 105 l 498 522 l 210 903 l 234 1012 l 943 1012 l 917 888 l 392 888 l 665 522 l 209 124 l 767 124 l 741 -1 "},"1":{"x_min":357.96875,"x_max":770.390625,"ha":776,"o":"m 563 0 l 434 0 l 579 697 l 357 697 l 378 796 q 555 833 494 796 q 673 986 623 875 l 770 986 l 563 0 "},"›":{"x_min":25.859375,"x_max":856.140625,"ha":776,"o":"m 837 376 l 25 41 l 49 149 l 706 420 l 161 691 l 185 798 l 856 465 l 837 376 "},"<":{"x_min":96.640625,"x_max":925.5625,"ha":776,"o":"m 766 41 l 96 376 l 115 465 l 925 798 l 902 691 l 245 420 l 789 149 l 766 41 "},"£":{"x_min":21.953125,"x_max":824,"ha":786,"o":"m 698 42 q 609 -9 652 6 q 525 -26 566 -26 q 355 16 485 -26 q 246 37 289 37 q 161 24 201 37 q 68 -20 121 11 l 21 76 q 205 248 164 185 q 246 377 246 311 q 241 415 246 393 q 236 444 237 437 l 92 444 l 107 513 l 213 513 q 188 655 188 582 q 283 903 188 804 q 562 1010 386 1010 q 749 949 674 1010 q 824 786 824 889 q 817 729 824 761 l 807 685 l 683 685 q 692 750 692 721 q 655 857 692 818 q 543 896 618 896 q 368 830 423 896 q 324 682 324 776 q 330 602 324 642 q 351 513 337 562 l 566 513 l 551 444 l 365 444 q 370 400 370 420 q 277 207 370 306 q 171 107 247 175 q 249 132 210 123 q 315 142 288 142 q 426 119 360 142 q 526 96 492 96 q 589 105 559 96 q 664 139 619 114 l 698 42 "},"t":{"x_min":131,"x_max":513.8125,"ha":450,"o":"m 360 0 q 304 -5 331 -2 q 256 -8 278 -8 q 131 91 131 -8 q 136 143 131 116 l 240 638 l 133 638 l 154 738 l 260 738 l 304 944 l 425 944 l 381 738 l 513 738 l 493 638 l 361 638 l 266 184 q 262 152 262 168 q 323 101 262 101 q 360 104 346 101 q 381 107 374 107 l 360 0 "},"¬":{"x_min":70.78125,"x_max":777.203125,"ha":787,"o":"m 777 411 l 724 158 l 649 158 l 687 335 l 70 335 l 85 411 l 777 411 "},"λ":{"x_min":0,"x_max":755.421875,"ha":787,"o":"m 733 -6 q 662 -15 698 -15 q 540 59 577 -15 q 502 213 522 97 l 445 551 l 123 0 l 0 0 l 413 705 q 394 837 404 770 q 302 900 374 900 q 276 898 285 900 l 299 1004 q 325 1008 311 1006 q 362 1011 340 1011 q 488 938 450 1011 q 530 783 509 901 l 634 192 q 660 115 643 135 q 721 96 676 96 l 741 96 q 755 97 751 97 l 733 -6 "},"W":{"x_min":235,"x_max":1450.125,"ha":1324,"o":"m 1450 1012 l 975 0 l 816 0 l 816 835 l 397 0 l 235 0 l 235 1012 l 362 1012 l 362 202 l 757 1012 l 922 1012 l 922 208 l 1322 1012 l 1450 1012 "},">":{"x_min":25.859375,"x_max":856.140625,"ha":776,"o":"m 837 376 l 25 41 l 49 149 l 706 420 l 161 691 l 185 798 l 856 465 l 837 376 "},"v":{"x_min":153.8125,"x_max":815.3125,"ha":746,"o":"m 815 737 l 396 0 l 266 0 l 153 737 l 284 737 l 364 147 l 684 737 l 815 737 "},"τ":{"x_min":131.5625,"x_max":786.109375,"ha":688,"o":"m 762 628 l 505 628 l 411 179 q 405 133 405 153 q 445 92 405 92 q 478 94 455 92 q 513 97 501 97 l 493 0 q 390 -14 436 -14 q 307 15 331 -14 q 284 99 284 45 q 288 159 284 133 q 303 233 292 185 l 385 628 l 131 628 l 154 739 l 786 739 l 762 628 "},"ξ":{"x_min":50,"x_max":776.78125,"ha":684,"o":"m 603 -37 q 560 -161 591 -95 q 494 -278 536 -212 l 386 -278 q 443 -183 432 -204 q 483 -83 473 -126 q 486 -62 486 -67 q 452 -12 486 -25 q 364 0 418 0 q 316 0 346 0 q 277 0 286 0 q 114 59 179 0 q 50 212 50 118 q 50 233 50 224 q 55 266 50 242 q 145 431 74 358 q 305 538 209 498 q 228 599 256 559 q 201 692 201 638 q 205 730 201 710 q 247 824 215 780 q 328 901 279 867 l 215 901 l 239 1012 l 776 1012 l 753 901 l 561 901 q 421 863 487 901 q 330 745 345 819 q 326 710 326 726 q 446 595 326 623 q 643 582 506 582 l 621 479 q 365 455 454 479 q 174 281 201 410 q 170 249 170 265 q 205 164 170 198 q 294 120 240 131 q 453 108 298 108 q 608 2 608 108 q 603 -37 608 -15 "},"&":{"x_min":50,"x_max":876.484375,"ha":972,"o":"m 876 0 l 710 0 l 638 123 q 463 0 552 40 q 292 -42 374 -42 q 79 91 138 -42 q 50 224 50 160 q 120 405 50 322 q 365 581 196 497 q 319 666 334 629 q 300 765 300 715 q 300 795 300 780 q 305 816 304 811 q 415 984 327 922 q 594 1040 494 1040 q 732 996 676 1040 q 788 872 788 952 q 788 850 788 861 q 782 823 783 832 q 692 666 764 738 q 540 556 635 608 l 678 326 q 729 427 703 362 q 754 493 741 458 l 869 493 q 737 229 838 351 l 876 0 m 665 818 q 670 851 670 837 q 642 916 670 894 q 574 939 615 939 q 477 907 522 939 q 421 818 433 875 q 417 783 417 798 q 438 698 417 740 q 488 627 452 673 q 620 729 581 683 q 665 818 654 769 m 589 209 l 412 499 q 242 379 297 443 q 187 249 187 316 q 211 158 187 204 q 342 79 252 79 q 589 209 456 79 "},"Λ":{"x_min":0,"x_max":845.25,"ha":923,"o":"m 845 0 l 705 0 l 594 846 l 140 0 l 0 0 l 562 1012 l 703 1012 l 845 0 "},"I":{"x_min":40.828125,"x_max":389.28125,"ha":287,"o":"m 176 0 l 40 0 l 253 1012 l 389 1012 l 176 0 "},"G":{"x_min":91,"x_max":1038,"ha":990,"o":"m 902 0 l 814 0 l 814 135 q 645 14 739 57 q 456 -28 552 -28 q 183 88 283 -28 q 91 370 91 198 q 104 499 91 438 q 307 881 152 730 q 693 1043 472 1043 q 934 966 838 1043 q 1038 749 1038 884 q 1038 728 1038 738 q 1036 708 1036 714 l 905 708 q 839 865 905 805 q 671 926 773 926 q 389 795 510 926 q 245 507 280 678 q 233 396 233 450 q 295 184 233 266 q 494 94 364 94 q 736 195 631 94 q 871 434 834 289 l 559 434 l 582 548 l 1016 548 l 902 0 "},"ΰ":{"x_min":63,"x_max":759.9375,"ha":711,"o":"m 681 799 l 573 799 l 599 924 l 706 924 l 681 799 m 347 799 l 240 799 l 265 924 l 373 924 l 347 799 m 678 352 q 550 94 646 199 q 297 -24 441 -24 q 118 56 180 -24 q 63 248 63 130 q 73 352 63 296 l 155 738 l 279 738 l 199 354 q 191 275 191 317 q 220 153 191 200 q 327 98 256 98 q 482 185 415 98 q 557 354 536 256 l 637 738 l 759 738 l 678 352 m 697 1039 l 465 819 l 384 819 l 562 1039 l 697 1039 "},"`":{"x_min":145.640625,"x_max":353.890625,"ha":231,"o":"m 281 699 l 145 699 l 179 861 q 238 974 193 927 q 353 1041 284 1020 l 340 977 q 272 925 296 969 q 243 839 254 893 l 311 839 l 281 699 "},"·":{"x_min":122.5,"x_max":292.640625,"ha":234,"o":"m 261 585 l 122 585 l 153 738 l 292 738 l 261 585 "},"Υ":{"x_min":212.328125,"x_max":1015.390625,"ha":871,"o":"m 1015 1012 l 559 416 l 472 0 l 334 0 l 421 416 l 212 1012 l 349 1012 l 514 533 l 877 1012 l 1015 1012 "},"r":{"x_min":0,"x_max":506.328125,"ha":423,"o":"m 479 621 l 466 621 q 294 569 362 621 q 205 411 227 518 l 119 0 l 0 0 l 153 738 l 268 738 l 240 604 q 351 719 285 686 q 506 753 416 753 l 479 621 "},"x":{"x_min":0,"x_max":801.703125,"ha":749,"o":"m 661 0 l 515 0 l 385 285 l 141 0 l 0 0 l 330 378 l 166 737 l 308 737 l 430 473 l 660 737 l 801 737 l 484 380 l 661 0 "},"μ":{"x_min":-58.640625,"x_max":758.0625,"ha":732,"o":"m 681 -4 q 647 -11 664 -8 q 613 -14 631 -14 q 509 96 509 -14 q 416 8 469 40 q 302 -24 363 -24 q 204 3 246 -24 q 133 80 161 31 l 58 -278 l -58 -278 l 153 737 l 274 737 l 193 342 q 185 262 185 305 q 213 138 185 184 q 319 82 248 82 q 480 177 410 82 q 557 357 536 255 l 636 737 l 758 737 l 649 213 q 643 180 646 199 q 641 146 641 161 q 649 105 641 120 q 680 91 657 91 q 703 95 688 91 l 681 -4 "},"h":{"x_min":0.078125,"x_max":712,"ha":709,"o":"m 702 471 l 603 -1 l 480 -1 l 575 453 q 584 521 584 486 q 559 614 584 580 q 469 653 530 653 q 307 587 385 653 q 211 435 230 522 l 119 0 l 0 0 l 212 1012 l 332 1012 l 251 632 q 366 726 292 693 q 514 759 441 759 q 664 702 612 759 q 712 556 712 649 q 709 517 712 539 q 702 471 706 496 "},".":{"x_min":0,"x_max":170.140625,"ha":234,"o":"m 138 0 l 0 0 l 31 151 l 170 151 l 138 0 "},"φ":{"x_min":65,"x_max":950,"ha":954,"o":"m 426 -279 l 311 -279 l 365 -17 q 143 58 221 -17 q 65 266 65 134 q 66 317 65 301 q 75 367 67 333 q 198 626 105 512 q 436 757 305 757 l 413 647 q 275 537 334 626 q 207 373 227 465 q 200 331 203 352 q 198 291 198 310 q 244 146 198 201 q 388 92 291 92 l 528 757 q 627 765 583 765 q 862 686 774 765 q 950 473 950 608 q 939 377 950 430 q 774 96 903 210 q 481 -17 646 -17 l 426 -279 m 504 92 l 522 92 q 711 183 628 92 q 810 380 786 265 q 819 458 819 420 q 779 598 819 545 q 648 657 735 657 l 622 657 l 504 92 "},";":{"x_min":-43.5625,"x_max":292.640625,"ha":234,"o":"m 261 585 l 122 585 l 153 738 l 292 738 l 261 585 m 136 -12 q 74 -133 121 -84 q -43 -206 28 -181 l -28 -138 q 39 -83 16 -123 q 66 0 54 -56 l 0 0 l 31 151 l 170 151 l 136 -12 "},"f":{"x_min":118.421875,"x_max":583.921875,"ha":463,"o":"m 503 637 l 374 637 l 240 0 l 118 0 l 251 637 l 133 637 l 153 737 l 272 737 q 330 933 304 886 q 499 1027 382 1027 q 539 1025 524 1027 q 583 1020 553 1024 l 560 907 q 509 917 532 917 q 432 870 460 917 q 404 780 415 839 l 394 737 l 524 737 l 503 637 "},"“":{"x_min":141.5625,"x_max":553.96875,"ha":445,"o":"m 277 669 l 141 669 l 175 829 q 236 943 189 895 q 349 1010 283 990 l 336 946 q 266 893 294 939 q 236 809 246 858 l 307 809 l 277 669 m 481 669 l 345 669 l 379 829 q 440 943 393 895 q 553 1010 487 990 l 540 946 q 470 893 498 939 q 441 809 450 858 l 511 809 l 481 669 "},"A":{"x_min":0,"x_max":888.8125,"ha":988,"o":"m 888 0 l 741 0 l 700 302 l 310 302 l 140 0 l 0 0 l 581 1012 l 730 1012 l 888 0 m 686 420 l 624 866 l 375 420 l 686 420 "},"6":{"x_min":127,"x_max":872,"ha":777,"o":"m 789 312 q 634 62 758 162 q 386 -31 518 -31 q 204 42 274 -31 q 127 278 127 124 q 131 353 127 314 q 144 439 135 391 q 351 858 201 711 q 632 985 481 985 q 802 922 733 985 q 872 758 872 860 q 867 713 872 736 l 739 713 q 741 736 741 721 q 701 836 741 799 q 603 874 662 874 q 431 792 512 874 q 297 516 336 695 q 419 596 354 569 q 548 623 484 623 q 724 557 653 623 q 795 380 795 491 q 795 346 795 364 q 789 312 795 328 m 653 298 q 659 331 658 324 q 660 358 660 338 q 615 474 660 433 q 505 515 571 515 q 360 460 427 515 q 265 299 287 401 q 259 266 260 273 q 259 239 259 259 q 305 121 259 164 q 413 83 347 83 q 558 137 491 83 q 653 298 631 196 "},"‘":{"x_min":141.5625,"x_max":349.8125,"ha":231,"o":"m 277 669 l 141 669 l 175 829 q 236 943 189 895 q 349 1010 283 990 l 336 946 q 266 893 294 939 q 236 809 246 858 l 307 809 l 277 669 "},"ϊ":{"x_min":71,"x_max":471.21875,"ha":354,"o":"m 445 800 l 337 800 l 363 925 l 471 925 l 445 800 m 207 800 l 99 800 l 125 925 l 233 925 l 207 800 m 277 2 q 226 -9 253 -4 q 175 -15 200 -15 q 94 16 118 -15 q 71 105 71 48 q 73 147 71 131 q 83 199 75 163 l 194 738 l 317 738 l 209 215 q 202 180 205 198 q 199 149 199 162 q 208 113 199 126 q 243 101 218 101 q 275 105 260 101 q 301 112 291 109 l 277 2 "},"π":{"x_min":95.421875,"x_max":912.09375,"ha":840,"o":"m 756 -10 l 691 -10 q 592 14 620 -10 q 565 86 565 38 q 575 167 565 116 q 589 226 582 196 l 672 626 l 348 626 l 217 0 l 95 0 l 226 626 l 130 626 l 153 737 l 912 737 l 888 626 l 793 626 l 698 171 q 694 134 694 148 q 712 97 694 105 q 777 90 729 90 l 756 -10 "},"ά":{"x_min":67,"x_max":826.765625,"ha":793,"o":"m 749 -3 q 682 -13 710 -13 q 573 97 573 -13 q 458 7 522 40 q 325 -26 393 -26 q 134 60 201 -26 q 67 272 67 146 q 77 369 67 318 q 220 637 110 525 q 490 760 340 760 q 608 728 558 760 q 685 637 659 696 l 706 739 l 826 739 l 717 222 q 712 190 715 208 q 709 156 709 171 q 719 110 709 126 q 754 95 728 95 q 770 96 765 95 l 749 -3 m 649 371 q 658 453 658 412 q 619 593 658 541 q 489 653 576 653 q 305 566 384 653 q 211 379 234 490 q 202 290 202 339 q 238 146 202 199 q 369 83 282 83 q 555 176 475 83 q 649 371 625 257 m 810 1041 l 578 820 l 496 820 l 675 1041 l 810 1041 "},"O":{"x_min":91,"x_max":1061,"ha":1035,"o":"m 693 1042 q 969 929 871 1042 q 1061 650 1061 823 q 1046 512 1061 586 q 846 136 998 287 q 466 -26 681 -26 q 185 86 286 -26 q 91 365 91 191 q 105 504 91 431 q 308 880 152 731 q 693 1042 476 1042 m 491 98 q 764 225 646 98 q 904 504 870 339 q 917 615 917 561 q 857 824 917 745 q 661 913 789 913 q 386 785 506 913 q 245 504 279 670 q 233 390 233 446 q 294 184 233 261 q 491 98 362 98 "},"n":{"x_min":0.4375,"x_max":710,"ha":710,"o":"m 700 463 l 603 0 l 480 0 l 576 453 q 583 517 583 491 q 555 614 583 578 q 463 655 524 655 q 298 583 374 655 q 203 420 222 512 l 114 0 l 0 0 l 155 738 l 269 738 l 246 630 q 365 727 291 692 q 513 763 440 763 q 663 703 613 763 q 710 553 710 649 q 708 510 710 525 q 700 463 707 495 "},"3":{"x_min":108,"x_max":844,"ha":776,"o":"m 783 284 q 634 55 753 141 q 387 -25 524 -25 q 188 31 260 -25 q 108 217 108 95 q 117 308 108 260 l 245 308 q 239 248 239 273 q 285 134 239 172 q 408 96 331 96 q 559 140 495 96 q 649 280 630 190 q 655 326 655 302 q 576 434 655 405 q 413 454 523 454 l 436 565 q 600 584 551 565 q 704 719 683 617 q 709 754 709 738 q 670 844 709 810 q 571 879 631 879 q 425 824 487 879 q 338 661 364 769 l 215 661 q 350 907 249 823 q 588 991 451 991 q 771 934 698 991 q 844 777 844 877 q 844 752 844 765 q 838 723 839 733 q 783 606 824 656 q 676 524 741 556 q 761 458 733 503 q 790 348 790 412 q 783 284 790 321 "},"9":{"x_min":102,"x_max":852,"ha":776,"o":"m 834 524 q 626 94 774 242 q 349 -32 499 -32 q 173 31 244 -32 q 102 193 102 94 q 104 220 102 205 q 107 243 106 234 l 236 243 q 234 212 234 231 q 274 119 234 156 q 376 82 315 82 q 541 161 465 82 q 677 439 634 256 q 426 333 560 333 q 238 403 303 333 q 180 573 180 467 q 287 849 180 726 q 582 986 405 986 q 792 897 724 986 q 852 680 852 819 q 834 524 852 611 m 472 448 q 650 534 579 448 q 716 711 716 613 q 679 825 716 782 q 560 874 638 874 q 382 786 454 874 q 316 606 316 705 q 354 492 316 537 q 472 448 393 448 "},"l":{"x_min":40.828125,"x_max":375.671875,"ha":274,"o":"m 163 0 l 40 0 l 253 1012 l 375 1012 l 163 0 "},"¤":{"x_min":103.1875,"x_max":885.515625,"ha":808,"o":"m 778 304 l 683 225 l 577 362 q 444 332 517 332 q 327 362 375 332 l 164 225 l 103 304 l 266 441 q 257 502 257 469 q 322 673 257 595 l 210 818 l 304 897 l 418 748 q 475 767 446 760 q 538 774 505 774 q 598 767 570 774 q 647 748 626 760 l 824 897 l 885 818 l 715 675 q 729 599 729 643 q 671 441 729 512 l 778 304 m 519 682 q 397 632 444 682 q 351 523 351 583 q 378 450 351 479 q 463 422 406 422 q 585 471 538 422 q 632 580 632 520 q 606 651 632 625 q 519 682 576 682 "},"κ":{"x_min":0,"x_max":737.71875,"ha":666,"o":"m 619 0 l 472 0 l 300 384 l 181 288 l 121 0 l 0 0 l 153 737 l 274 737 l 215 445 l 578 737 l 737 737 l 404 466 l 619 0 "},"4":{"x_min":98,"x_max":801.703125,"ha":776,"o":"m 778 243 l 641 243 l 590 0 l 466 0 l 517 243 l 98 243 l 125 367 l 665 958 l 790 958 l 664 354 l 801 354 l 778 243 m 540 354 l 632 794 l 234 354 l 540 354 "},"p":{"x_min":-58.75,"x_max":758,"ha":770,"o":"m 747 363 q 605 95 714 206 q 337 -24 488 -24 q 137 88 197 -24 l 59 -278 l -58 -278 l 154 738 l 273 738 l 250 633 q 367 726 300 691 q 503 761 433 761 q 695 673 627 761 q 758 465 758 592 q 747 363 758 419 m 622 370 q 631 448 631 410 q 591 590 631 535 q 459 651 546 651 q 274 559 353 651 q 182 366 206 480 q 174 288 174 326 q 213 146 174 201 q 344 85 258 85 q 528 177 448 85 q 622 370 598 258 "},"‡":{"x_min":49,"x_max":931,"ha":818,"o":"m 499 237 l 449 0 l 313 0 l 362 236 l 49 236 l 74 360 l 387 360 l 455 682 l 142 682 l 168 804 l 481 804 l 525 1013 l 661 1013 l 617 804 l 931 804 l 905 682 l 592 682 l 524 359 l 837 359 l 812 237 l 499 237 "},"ψ":{"x_min":67,"x_max":947.890625,"ha":889,"o":"m 398 -278 l 276 -278 l 332 -15 q 135 63 203 -15 q 67 269 67 141 q 79 377 67 320 l 155 738 l 286 738 l 210 378 q 202 302 202 342 q 237 162 202 217 q 355 97 278 97 l 528 921 l 649 921 l 476 97 q 652 194 573 97 q 742 381 719 277 l 817 741 l 947 741 l 873 380 q 731 103 837 210 q 455 -12 615 -12 l 398 -278 "},"η":{"x_min":79.078125,"x_max":796,"ha":793,"o":"m 624 -278 l 502 -278 l 656 453 q 663 520 663 491 q 638 611 663 577 q 552 650 609 650 q 387 579 466 650 q 289 420 307 509 l 201 0 l 79 0 l 181 489 q 190 535 186 517 q 193 574 193 553 q 182 623 193 607 q 134 644 167 644 l 155 741 q 224 755 193 755 q 302 721 277 755 q 328 630 328 688 q 442 726 374 692 q 585 761 511 761 q 737 709 679 761 q 796 570 796 658 q 796 545 796 557 q 790 516 791 526 l 624 -278 "}}}
